# This file uses centimeters as units for non-parametric coordinates.

mtllib obj_facemask_v1.mtl
g default
v -10.960339 107.439072 7.751142
v 10.960339 107.439072 7.751142
v -10.960338 131.115524 9.655018
v 10.960338 131.115524 9.655018
v 0.000000 107.439072 12.887860
v 0.000000 131.115524 14.164472
v -10.960339 115.361298 11.382912
v 0.000000 115.361298 16.846067
v 10.960339 115.361298 11.382912
v 10.960338 119.043037 10.766310
v 0.000000 119.043037 15.262730
v -10.960338 119.043037 10.766310
v 10.960339 111.989479 10.332198
v 0.000000 124.182556 14.597138
v 10.960338 124.182556 10.088988
v 5.480169 131.115524 12.729646
v -5.480169 131.115524 12.729646
v -10.960338 124.182556 10.088988
v 5.480169 119.043037 13.832051
v 0.000000 116.894737 16.217211
v 5.480169 115.361298 15.451409
v 10.960338 116.894730 11.752512
v -5.480169 115.361298 15.451409
v -5.480169 119.043037 13.832051
v -10.960338 116.894730 11.752512
v -5.480169 107.439072 11.630284
v 0.000000 111.989479 15.354082
v -10.960339 111.989479 10.332198
v 5.480169 107.439072 11.630284
v 5.480169 116.894730 14.796619
v -5.480169 116.894730 14.796619
v -5.480169 111.989479 14.263189
v 5.480169 111.989479 14.263189
v 5.480169 124.182556 13.162728
v -5.480169 124.182556 13.162727
v 8.220253 117.706276 12.902596
v 2.740084 117.706276 15.348083
v 2.740084 116.236908 16.377306
v 8.220253 116.236908 13.958552
v -8.220253 116.236908 13.958552
v -2.740084 116.236908 16.377306
v -2.740084 117.706276 15.348083
v -8.220253 117.706276 12.902596
v -8.220253 109.787941 11.036366
v -2.740084 109.787941 14.132285
v -2.740084 113.896370 15.480505
v -8.220253 113.896370 12.026750
v 8.220253 113.896370 12.026750
v 2.740084 113.896370 15.480505
v 2.740084 109.787941 14.132285
v 8.220253 109.787941 11.036366
v 2.740084 127.536957 13.956297
v 2.740084 121.276520 14.476786
v 8.220253 121.276520 12.019926
v 8.220253 127.536957 11.496595
v -8.220253 121.276520 12.019927
v -2.740084 121.276520 14.476786
v -2.740084 127.536957 13.956297
v -8.220253 127.536957 11.496595
v 5.480169 117.706276 14.329130
v 2.740084 116.894730 15.811326
v 5.480169 116.236908 15.369448
v 8.220253 116.894730 13.376037
v -5.480169 116.236908 15.369448
v -2.740084 116.894730 15.811326
v -5.480169 117.706276 14.329130
v -8.220253 116.894730 13.376037
v -5.480169 109.787941 13.238362
v -2.740084 111.989479 15.042403
v -5.480169 113.896370 14.487722
v -8.220253 111.989479 12.048742
v 5.480169 113.896370 14.487722
v 2.740084 111.989479 15.042403
v 5.480169 109.787941 13.238362
v 8.220253 111.989479 12.048742
v 2.740084 124.182556 14.187307
v 5.480169 121.276520 13.453094
v 8.220253 124.182556 11.728316
v 5.480169 127.536957 12.931421
v -5.480169 121.276520 13.453094
v -2.740084 124.182556 14.187307
v -5.480169 127.536957 12.931421
v -8.220253 124.182556 11.728316
v 8.220253 119.043037 12.401371
v 2.740084 119.043037 14.853966
v 0.000000 117.706276 15.755663
v 0.000000 116.236908 16.780930
v 2.740084 115.361298 16.447620
v 8.220253 115.361298 14.056536
v 10.960338 116.236908 12.346231
v 10.960338 117.706276 11.272274
v -8.220253 115.361298 14.056536
v -2.740084 115.361298 16.447620
v -2.740084 119.043037 14.853966
v -8.220253 119.043037 12.401371
v -10.960338 117.706276 11.272274
v -10.960338 116.236908 12.346231
v -8.220253 107.439072 9.439262
v -2.740084 107.439072 12.580342
v 0.000000 109.787941 14.504879
v 0.000000 113.896370 15.877616
v -10.960337 113.896370 10.186846
v -10.960339 109.787941 9.334044
v 2.740084 107.439072 12.580342
v 8.220253 107.439072 9.439262
v 10.960339 109.787941 9.334044
v 10.960337 113.896370 10.186846
v 0.000000 127.536957 14.366247
v 0.000000 121.276520 14.886261
v 10.960338 121.276520 10.382021
v 10.960338 127.536957 9.856793
v 8.220253 131.115524 11.294819
v 2.740084 131.115524 13.754521
v -2.740084 131.115524 13.754521
v -8.220253 131.115524 11.294819
v -10.960338 127.536957 9.856793
v -10.960338 121.276520 10.382021
vt 0.002478 0.003968
vt 0.997522 0.003968
vt 0.002478 0.999012
vt 0.997522 0.999012
vt 0.500000 0.003968
vt 0.500000 0.999012
vt 0.002478 0.300659
vt 0.500000 0.276124
vt 0.997522 0.300659
vt 0.997522 0.440329
vt 0.500000 0.505800
vt 0.002478 0.440329
vt 0.748761 0.374076
vt 0.251239 0.374076
vt 0.251239 0.150167
vt 0.748761 0.150167
vt 0.748761 0.725399
vt 0.251239 0.725399
vt 0.748761 0.500890
vt 0.500000 0.374588
vt 0.748761 0.277964
vt 0.997522 0.370494
vt 0.251239 0.277964
vt 0.251239 0.500890
vt 0.002478 0.370494
vt 0.251239 0.003968
vt 0.500000 0.149860
vt 0.002478 0.152313
vt 0.748761 0.003968
vt 0.997522 0.152313
vt 0.500000 0.726218
vt 0.997522 0.719671
vt 0.748761 0.999012
vt 0.251239 0.999012
vt 0.002478 0.719671
vt 0.873141 0.418506
vt 0.624380 0.431600
vt 0.624380 0.325763
vt 0.873141 0.330669
vt 0.126859 0.330669
vt 0.375620 0.325762
vt 0.375620 0.431600
vt 0.126859 0.418506
vt 0.126859 0.078141
vt 0.375620 0.078141
vt 0.375620 0.216672
vt 0.126859 0.221579
vt 0.873141 0.221579
vt 0.624380 0.216672
vt 0.624380 0.078141
vt 0.873141 0.078141
vt 0.624380 0.859341
vt 0.624380 0.606188
vt 0.873141 0.593094
vt 0.873141 0.859341
vt 0.126859 0.593094
vt 0.375620 0.606188
vt 0.375620 0.859341
vt 0.126859 0.859341
vt 0.748761 0.428326
vt 0.624380 0.374588
vt 0.748761 0.326989
vt 0.873141 0.372541
vt 0.251239 0.326989
vt 0.375620 0.374588
vt 0.251239 0.428326
vt 0.126859 0.372541
vt 0.251239 0.078141
vt 0.375620 0.149860
vt 0.251239 0.217899
vt 0.126859 0.151087
vt 0.748761 0.217899
vt 0.624380 0.149860
vt 0.748761 0.078141
vt 0.873141 0.151087
vt 0.624380 0.726218
vt 0.748761 0.602915
vt 0.873141 0.722944
vt 0.748761 0.859341
vt 0.251239 0.602915
vt 0.375620 0.726218
vt 0.251239 0.859341
vt 0.126859 0.722944
vt 0.873141 0.486159
vt 0.624380 0.505800
vt 0.500000 0.431600
vt 0.500000 0.325762
vt 0.624380 0.276124
vt 0.873141 0.283485
vt 0.997522 0.335576
vt 0.997522 0.405412
vt 0.126859 0.283485
vt 0.375620 0.276124
vt 0.375620 0.505800
vt 0.126859 0.486159
vt 0.002478 0.405412
vt 0.002478 0.335576
vt 0.126859 0.003968
vt 0.375620 0.003968
vt 0.500000 0.078141
vt 0.500000 0.216672
vt 0.002478 0.226486
vt 0.002478 0.078141
vt 0.624380 0.003968
vt 0.873141 0.003968
vt 0.997522 0.078141
vt 0.997522 0.226486
vt 0.500000 0.859341
vt 0.500000 0.606188
vt 0.997522 0.580000
vt 0.997522 0.859341
vt 0.873141 0.999012
vt 0.624380 0.999012
vt 0.375620 0.999012
vt 0.126859 0.999012
vt 0.002478 0.859341
vt 0.002478 0.580000
vn 0.501913 0.201825 0.841041
vn 0.477395 0.211300 0.852905
vn 0.452588 0.369071 0.811758
vn 0.478073 0.355377 0.803215
vn 0.398912 0.219406 0.890354
vn 0.376449 0.380809 0.844553
vn 0.340471 0.545431 0.765888
vn 0.410816 0.533151 0.739581
vn 0.437546 0.513215 0.738352
vn 0.246140 0.231360 0.941216
vn 0.230653 0.398375 0.887748
vn 0.000000 0.238909 0.971042
vn 0.000000 0.409369 0.912369
vn 0.000000 0.577145 0.816642
vn 0.207228 0.564797 0.798787
vn 0.228001 0.367431 0.901670
vn 0.372777 0.361141 0.854760
vn 0.000000 0.370866 0.928686
vn 0.000000 -0.352533 0.935799
vn 0.226325 -0.343592 0.911439
vn 0.399567 -0.390399 0.829419
vn 0.506414 0.215761 0.834861
vn 0.572184 0.077327 0.816472
vn 0.497486 -0.502753 0.706928
vn 0.506352 -0.597173 0.622087
vn -0.506352 -0.597173 0.622087
vn -0.497486 -0.502753 0.706928
vn -0.506414 0.215761 0.834861
vn -0.572183 0.077327 0.816472
vn -0.399567 -0.390399 0.829419
vn -0.372777 0.361141 0.854760
vn -0.340471 0.545431 0.765888
vn -0.410816 0.533151 0.739581
vn -0.437546 0.513215 0.738352
vn -0.226325 -0.343592 0.911439
vn -0.228001 0.367431 0.901670
vn -0.207228 0.564797 0.798787
vn -0.230653 0.398375 0.887748
vn -0.376449 0.380809 0.844553
vn -0.246140 0.231360 0.941216
vn -0.398912 0.219406 0.890354
vn -0.452588 0.369071 0.811758
vn -0.478073 0.355377 0.803215
vn -0.477395 0.211300 0.852905
vn -0.501913 0.201825 0.841041
vn -0.455970 -0.498900 0.737014
vn -0.496084 -0.487762 0.718324
vn -0.527104 -0.423609 0.736694
vn -0.471816 -0.446891 0.760051
vn -0.449125 -0.501530 0.739428
vn -0.436722 -0.440964 0.784107
vn -0.473116 -0.243283 0.846743
vn -0.582795 -0.197281 0.788308
vn -0.525511 -0.196582 0.827765
vn -0.193825 -0.548052 0.813677
vn -0.190105 -0.471739 0.861001
vn 0.000000 -0.559229 0.829013
vn -0.000000 -0.472417 0.881375
vn -0.000000 -0.312938 0.949774
vn -0.204447 -0.299203 0.932029
vn -0.217271 -0.372737 0.902142
vn -0.460844 -0.368892 0.807181
vn -0.000000 -0.400469 0.916310
vn -0.570538 -0.343724 0.745883
vn -0.554512 -0.301836 0.775507
vn 0.570538 -0.343724 0.745883
vn 0.554512 -0.301836 0.775508
vn 0.460844 -0.368892 0.807181
vn 0.473116 -0.243283 0.846743
vn 0.582795 -0.197281 0.788308
vn 0.525511 -0.196582 0.827765
vn 0.217271 -0.372737 0.902142
vn 0.204447 -0.299203 0.932029
vn 0.190105 -0.471739 0.861001
vn 0.436722 -0.440965 0.784107
vn 0.193825 -0.548052 0.813677
vn 0.449125 -0.501530 0.739428
vn 0.527104 -0.423609 0.736694
vn 0.471816 -0.446891 0.760051
vn 0.496084 -0.487762 0.718324
vn 0.455970 -0.498900 0.737014
vn 0.000000 0.056295 0.998414
vn 0.000000 0.062331 0.998056
vn 0.252873 0.060309 0.965618
vn 0.253810 0.054452 0.965720
vn 0.000000 0.082935 0.996555
vn 0.252515 0.080275 0.964257
vn 0.408297 0.075864 0.909691
vn 0.408857 0.056914 0.910822
vn 0.409768 0.051352 0.910743
vn -0.000000 0.128946 0.991652
vn 0.251256 0.124858 0.959834
vn 0.406415 0.118193 0.906012
vn 0.485782 0.113591 0.866668
vn 0.487920 0.072742 0.869852
vn 0.509884 0.110754 0.853084
vn 0.512057 0.071312 0.855986
vn 0.488579 0.054458 0.870819
vn 0.489141 0.049101 0.870821
vn 0.512756 0.053494 0.856866
vn 0.512917 0.048326 0.857077
vn -0.485782 0.113591 0.866668
vn -0.509884 0.110754 0.853084
vn -0.406415 0.118193 0.906012
vn -0.408297 0.075865 0.909691
vn -0.487920 0.072742 0.869852
vn -0.512057 0.071313 0.855986
vn -0.251256 0.124858 0.959834
vn -0.252516 0.080275 0.964257
vn -0.252874 0.060309 0.965618
vn -0.408857 0.056914 0.910822
vn -0.253810 0.054452 0.965720
vn -0.409768 0.051352 0.910743
vn -0.488579 0.054457 0.870819
vn -0.512756 0.053494 0.856866
vn -0.489141 0.049101 0.870821
vn -0.512917 0.048326 0.857077
s 1
g face_mask
usemtl lambert12SG
f 10/10/1 84/84/2 36/36/3 91/91/4
f 84/84/2 19/19/5 60/60/6 36/36/3
f 36/36/3 60/60/6 30/13/7 63/63/8
f 91/91/4 36/36/3 63/63/8 22/22/9
f 19/19/5 85/85/10 37/37/11 60/60/6
f 85/85/10 11/11/12 86/86/13 37/37/11
f 37/37/11 86/86/13 20/20/14 61/61/15
f 60/60/6 37/37/11 61/61/15 30/13/7
f 30/13/7 61/61/15 38/38/16 62/62/17
f 61/61/15 20/20/14 87/87/18 38/38/16
f 38/38/16 87/87/18 8/8/19 88/88/20
f 62/62/17 38/38/16 88/88/20 21/21/21
f 22/22/9 63/63/8 39/39/22 90/90/23
f 63/63/8 30/13/7 62/62/17 39/39/22
f 39/39/22 62/62/17 21/21/21 89/89/24
f 90/90/23 39/39/22 89/89/24 9/9/25
f 7/7/26 92/92/27 40/40/28 97/97/29
f 92/92/27 23/23/30 64/64/31 40/40/28
f 40/40/28 64/64/31 31/14/32 67/67/33
f 97/97/29 40/40/28 67/67/33 25/25/34
f 23/23/30 93/93/35 41/41/36 64/64/31
f 93/93/35 8/8/19 87/87/18 41/41/36
f 41/41/36 87/87/18 20/20/14 65/65/37
f 64/64/31 41/41/36 65/65/37 31/14/32
f 31/14/32 65/65/37 42/42/38 66/66/39
f 65/65/37 20/20/14 86/86/13 42/42/38
f 42/42/38 86/86/13 11/11/12 94/94/40
f 66/66/39 42/42/38 94/94/40 24/24/41
f 25/25/34 67/67/33 43/43/42 96/96/43
f 67/67/33 31/14/32 66/66/39 43/43/42
f 43/43/42 66/66/39 24/24/41 95/95/44
f 96/96/43 43/43/42 95/95/44 12/12/45
f 1/1/46 98/98/47 44/44/48 103/103/49
f 98/98/47 26/26/50 68/68/51 44/44/48
f 44/44/48 68/68/51 32/15/52 71/71/53
f 103/103/49 44/44/48 71/71/53 28/28/54
f 26/26/50 99/99/55 45/45/56 68/68/51
f 99/99/55 5/5/57 100/100/58 45/45/56
f 45/45/56 100/100/58 27/27/59 69/69/60
f 68/68/51 45/45/56 69/69/60 32/15/52
f 32/15/52 69/69/60 46/46/61 70/70/62
f 69/69/60 27/27/59 101/101/63 46/46/61
f 46/46/61 101/101/63 8/8/19 93/93/35
f 70/70/62 46/46/61 93/93/35 23/23/30
f 28/28/54 71/71/53 47/47/64 102/102/65
f 71/71/53 32/15/52 70/70/62 47/47/64
f 47/47/64 70/70/62 23/23/30 92/92/27
f 102/102/65 47/47/64 92/92/27 7/7/26
f 9/9/25 89/89/24 48/48/66 107/107/67
f 89/89/24 21/21/21 72/72/68 48/48/66
f 48/48/66 72/72/68 33/16/69 75/75/70
f 107/107/67 48/48/66 75/75/70 13/30/71
f 21/21/21 88/88/20 49/49/72 72/72/68
f 88/88/20 8/8/19 101/101/63 49/49/72
f 49/49/72 101/101/63 27/27/59 73/73/73
f 72/72/68 49/49/72 73/73/73 33/16/69
f 33/16/69 73/73/73 50/50/74 74/74/75
f 73/73/73 27/27/59 100/100/58 50/50/74
f 50/50/74 100/100/58 5/5/57 104/104/76
f 74/74/75 50/50/74 104/104/76 29/29/77
f 13/30/71 75/75/70 51/51/78 106/106/79
f 75/75/70 33/16/69 74/74/75 51/51/78
f 51/51/78 74/74/75 29/29/77 105/105/80
f 106/106/79 51/51/78 105/105/80 2/2/81
f 6/6/82 108/108/83 52/52/84 113/113/85
f 108/108/83 14/31/86 76/76/87 52/52/84
f 52/52/84 76/76/87 34/17/88 79/79/89
f 113/113/85 52/52/84 79/79/89 16/33/90
f 14/31/86 109/109/91 53/53/92 76/76/87
f 109/109/91 11/11/12 85/85/10 53/53/92
f 53/53/92 85/85/10 19/19/5 77/77/93
f 76/76/87 53/53/92 77/77/93 34/17/88
f 34/17/88 77/77/93 54/54/94 78/78/95
f 77/77/93 19/19/5 84/84/2 54/54/94
f 54/54/94 84/84/2 10/10/1 110/110/96
f 78/78/95 54/54/94 110/110/96 15/32/97
f 16/33/90 79/79/89 55/55/98 112/112/99
f 79/79/89 34/17/88 78/78/95 55/55/98
f 55/55/98 78/78/95 15/32/97 111/111/100
f 112/112/99 55/55/98 111/111/100 4/4/101
f 12/12/45 95/95/44 56/56/102 117/117/103
f 95/95/44 24/24/41 80/80/104 56/56/102
f 56/56/102 80/80/104 35/18/105 83/83/106
f 117/117/103 56/56/102 83/83/106 18/35/107
f 24/24/41 94/94/40 57/57/108 80/80/104
f 94/94/40 11/11/12 109/109/91 57/57/108
f 57/57/108 109/109/91 14/31/86 81/81/109
f 80/80/104 57/57/108 81/81/109 35/18/105
f 35/18/105 81/81/109 58/58/110 82/82/111
f 81/81/109 14/31/86 108/108/83 58/58/110
f 58/58/110 108/108/83 6/6/82 114/114/112
f 82/82/111 58/58/110 114/114/112 17/34/113
f 18/35/107 83/83/106 59/59/114 116/116/115
f 83/83/106 35/18/105 82/82/111 59/59/114
f 59/59/114 82/82/111 17/34/113 115/115/116
f 116/116/115 59/59/114 115/115/116 3/3/117
